<mxfile host="app.diagrams.net" modified="2023-12-01T16:08:26.297Z" agent="Mozilla/5.0 (X11; Linux x86_64) AppleWebKit/537.36 (KHTML, like Gecko) Chrome/119.0.0.0 Safari/537.36" etag="SZc7b5XuQmSJgOa8xXUN" version="22.1.5" type="google">
  <diagram name="Page-1" id="SFV0DPMBpy5tl9tK5UpT">
    <mxGraphModel grid="1" page="1" gridSize="10" guides="1" tooltips="1" connect="1" arrows="1" fold="1" pageScale="1" pageWidth="827" pageHeight="1169" math="0" shadow="0">
      <root>
        <mxCell id="0" />
        <mxCell id="1" parent="0" />
        <mxCell id="krKL_mxPOFj_XPniPA5U-5" value="Workflow App" style="rounded=0;whiteSpace=wrap;html=1;fillColor=#dae8fc;strokeColor=#6c8ebf;" vertex="1" parent="1">
          <mxGeometry x="65" y="80" width="130" height="60" as="geometry" />
        </mxCell>
        <mxCell id="krKL_mxPOFj_XPniPA5U-9" value="Embedded&lt;br&gt;Job Service" style="rounded=0;whiteSpace=wrap;html=1;fillColor=#d5e8d4;strokeColor=#82b366;" vertex="1" parent="1">
          <mxGeometry x="65" y="270" width="130" height="60" as="geometry" />
        </mxCell>
        <mxCell id="krKL_mxPOFj_XPniPA5U-17" value="" style="whiteSpace=wrap;html=1;aspect=fixed;fillColor=#ffe6cc;strokeColor=#d79b00;dashed=1;dashPattern=12 12;" vertex="1" parent="1">
          <mxGeometry x="65" y="140" width="130" height="130" as="geometry" />
        </mxCell>
        <mxCell id="krKL_mxPOFj_XPniPA5U-19" value="" style="rounded=0;whiteSpace=wrap;html=1;fillColor=#ffe6cc;strokeColor=#d79b00;dashed=1;dashPattern=12 12;" vertex="1" parent="1">
          <mxGeometry x="95" y="210" width="100" height="60" as="geometry" />
        </mxCell>
        <mxCell id="krKL_mxPOFj_XPniPA5U-21" value="" style="rounded=0;whiteSpace=wrap;html=1;direction=west;fillColor=#ffe6cc;strokeColor=#d79b00;dashed=1;dashPattern=12 12;" vertex="1" parent="1">
          <mxGeometry x="65" y="140" width="30" height="130" as="geometry" />
        </mxCell>
        <mxCell id="krKL_mxPOFj_XPniPA5U-23" value="" style="rounded=0;whiteSpace=wrap;html=1;fillColor=#ffe6cc;strokeColor=#d79b00;dashed=1;dashPattern=12 12;" vertex="1" parent="1">
          <mxGeometry x="95" y="140" width="30" height="70" as="geometry" />
        </mxCell>
        <mxCell id="krKL_mxPOFj_XPniPA5U-25" value="" style="rounded=0;whiteSpace=wrap;html=1;fillColor=#ffe6cc;strokeColor=#d79b00;dashed=1;dashPattern=12 12;" vertex="1" parent="1">
          <mxGeometry x="125" y="180" width="70" height="30" as="geometry" />
        </mxCell>
        <mxCell id="krKL_mxPOFj_XPniPA5U-26" value="" style="rounded=0;whiteSpace=wrap;html=1;fillColor=#ffe6cc;strokeColor=#d79b00;dashed=1;dashPattern=12 12;" vertex="1" parent="1">
          <mxGeometry x="125" y="140" width="70" height="40" as="geometry" />
        </mxCell>
        <mxCell id="krKL_mxPOFj_XPniPA5U-27" value="Data Index" style="text;html=1;align=center;verticalAlign=middle;resizable=0;points=[];autosize=1;rotation=90;dashed=1;dashPattern=12 12;" vertex="1" parent="1">
          <mxGeometry x="40" y="190" width="80" height="30" as="geometry" />
        </mxCell>
        <mxCell id="krKL_mxPOFj_XPniPA5U-28" value="GraphQL" style="text;html=1;align=center;verticalAlign=middle;resizable=0;points=[];autosize=1;rotation=90;dashed=1;dashPattern=12 12;" vertex="1" parent="1">
          <mxGeometry x="75" y="160" width="70" height="30" as="geometry" />
        </mxCell>
        <mxCell id="krKL_mxPOFj_XPniPA5U-29" value="&lt;font style=&quot;font-size: 11px;&quot;&gt;Gateway API&lt;/font&gt;" style="text;html=1;align=center;verticalAlign=middle;resizable=0;points=[];autosize=1;dashed=1;dashPattern=12 12;" vertex="1" parent="1">
          <mxGeometry x="115" y="145" width="90" height="30" as="geometry" />
        </mxCell>
        <mxCell id="krKL_mxPOFj_XPniPA5U-30" value="&lt;font style=&quot;font-size: 11px;&quot;&gt;Queries&lt;/font&gt;" style="text;html=1;align=center;verticalAlign=middle;resizable=0;points=[];autosize=1;dashed=1;dashPattern=12 12;" vertex="1" parent="1">
          <mxGeometry x="130" y="180" width="60" height="30" as="geometry" />
        </mxCell>
        <mxCell id="krKL_mxPOFj_XPniPA5U-31" value="Data&lt;br&gt;Indexation" style="text;html=1;align=center;verticalAlign=middle;resizable=0;points=[];autosize=1;strokeColor=none;fillColor=none;dashed=1;dashPattern=12 12;" vertex="1" parent="1">
          <mxGeometry x="105" y="220" width="80" height="40" as="geometry" />
        </mxCell>
        <mxCell id="krKL_mxPOFj_XPniPA5U-32" value="DB" style="shape=cylinder3;whiteSpace=wrap;html=1;boundedLbl=1;backgroundOutline=1;size=15;fillColor=#dae8fc;strokeColor=#6c8ebf;" vertex="1" parent="1">
          <mxGeometry x="255" y="160" width="90" height="80" as="geometry" />
        </mxCell>
        <mxCell id="awBEOhFoFF5UymR4_-2E-9" value="" style="shape=flexArrow;endArrow=classic;html=1;rounded=0;endWidth=7;endSize=2;width=6;fillColor=#ffe6cc;strokeColor=#d79b00;" edge="1" parent="1">
          <mxGeometry width="50" height="50" relative="1" as="geometry">
            <mxPoint x="174.5" y="150" as="sourcePoint" />
            <mxPoint x="174.5" y="130" as="targetPoint" />
            <Array as="points">
              <mxPoint x="174.5" y="120" />
            </Array>
          </mxGeometry>
        </mxCell>
        <mxCell id="awBEOhFoFF5UymR4_-2E-10" value="" style="shape=flexArrow;endArrow=classic;html=1;rounded=0;endWidth=6;endSize=3.165;width=6;fillColor=#ffe6cc;strokeColor=#d79b00;" edge="1" parent="1">
          <mxGeometry width="50" height="50" relative="1" as="geometry">
            <mxPoint x="185" y="170" as="sourcePoint" />
            <mxPoint x="185" y="290" as="targetPoint" />
          </mxGeometry>
        </mxCell>
        <mxCell id="HVcm6iyR7VjEUGQc1Eu3-1" value="" style="shape=flexArrow;endArrow=classic;startArrow=classic;html=1;rounded=0;width=4;startSize=3.67;endWidth=6;endSize=3.67;startWidth=6;fillColor=#dae8fc;strokeColor=#6c8ebf;" edge="1" parent="1">
          <mxGeometry width="100" height="100" relative="1" as="geometry">
            <mxPoint x="296" y="150" as="sourcePoint" />
            <mxPoint x="206" y="100" as="targetPoint" />
            <Array as="points">
              <mxPoint x="296" y="100" />
            </Array>
          </mxGeometry>
        </mxCell>
        <mxCell id="HVcm6iyR7VjEUGQc1Eu3-3" value="" style="shape=flexArrow;endArrow=classic;html=1;rounded=0;endWidth=7;endSize=2;width=6;fillColor=#ffe6cc;strokeColor=#d79b00;" edge="1" parent="1">
          <mxGeometry width="50" height="50" relative="1" as="geometry">
            <mxPoint x="184.5" y="150" as="sourcePoint" />
            <mxPoint x="184.5" y="130" as="targetPoint" />
            <Array as="points">
              <mxPoint x="184.5" y="120" />
            </Array>
          </mxGeometry>
        </mxCell>
        <mxCell id="HVcm6iyR7VjEUGQc1Eu3-4" value="" style="shape=flexArrow;endArrow=classic;html=1;rounded=0;endWidth=7.5;endSize=4.835;width=5;fillColor=#ffe6cc;strokeColor=#d79b00;" edge="1" parent="1">
          <mxGeometry width="50" height="50" relative="1" as="geometry">
            <mxPoint x="205" y="220" as="sourcePoint" />
            <mxPoint x="245" y="220" as="targetPoint" />
            <Array as="points">
              <mxPoint x="205" y="220" />
            </Array>
          </mxGeometry>
        </mxCell>
        <mxCell id="HVcm6iyR7VjEUGQc1Eu3-6" value="" style="shape=flexArrow;endArrow=classic;html=1;rounded=0;endWidth=6;endSize=4.335;width=6;fillColor=#ffe6cc;strokeColor=#d79b00;" edge="1" parent="1">
          <mxGeometry width="50" height="50" relative="1" as="geometry">
            <mxPoint x="245" y="194.75" as="sourcePoint" />
            <mxPoint x="205" y="194.75" as="targetPoint" />
            <Array as="points" />
          </mxGeometry>
        </mxCell>
        <mxCell id="VF8lxwO4uiRA0CJFKEZP-1" value="Workflow App" style="rounded=0;whiteSpace=wrap;html=1;fillColor=#dae8fc;strokeColor=#6c8ebf;" vertex="1" parent="1">
          <mxGeometry x="455" y="80" width="130" height="60" as="geometry" />
        </mxCell>
        <mxCell id="VF8lxwO4uiRA0CJFKEZP-2" value="Embedded&lt;br&gt;Job Service" style="rounded=0;whiteSpace=wrap;html=1;fillColor=#d5e8d4;strokeColor=#82b366;" vertex="1" parent="1">
          <mxGeometry x="455" y="270" width="130" height="60" as="geometry" />
        </mxCell>
        <mxCell id="VF8lxwO4uiRA0CJFKEZP-3" value="" style="whiteSpace=wrap;html=1;aspect=fixed;fillColor=#ffe6cc;strokeColor=#d79b00;dashed=1;dashPattern=12 12;" vertex="1" parent="1">
          <mxGeometry x="455" y="140" width="130" height="130" as="geometry" />
        </mxCell>
        <mxCell id="VF8lxwO4uiRA0CJFKEZP-4" value="" style="rounded=0;whiteSpace=wrap;html=1;fillColor=#ffe6cc;strokeColor=#d79b00;dashed=1;dashPattern=12 12;" vertex="1" parent="1">
          <mxGeometry x="485" y="140" width="100" height="130" as="geometry" />
        </mxCell>
        <mxCell id="VF8lxwO4uiRA0CJFKEZP-5" value="" style="rounded=0;whiteSpace=wrap;html=1;direction=west;fillColor=#ffe6cc;strokeColor=#d79b00;dashed=1;dashPattern=12 12;" vertex="1" parent="1">
          <mxGeometry x="455" y="140" width="30" height="130" as="geometry" />
        </mxCell>
        <mxCell id="VF8lxwO4uiRA0CJFKEZP-9" value="Data Index" style="text;html=1;align=center;verticalAlign=middle;resizable=0;points=[];autosize=1;rotation=90;dashed=1;dashPattern=12 12;" vertex="1" parent="1">
          <mxGeometry x="430" y="190" width="80" height="30" as="geometry" />
        </mxCell>
        <mxCell id="VF8lxwO4uiRA0CJFKEZP-13" value="Data&lt;br&gt;Indexation" style="text;html=1;align=center;verticalAlign=middle;resizable=0;points=[];autosize=1;strokeColor=none;fillColor=none;dashed=1;dashPattern=12 12;" vertex="1" parent="1">
          <mxGeometry x="495" y="180" width="80" height="40" as="geometry" />
        </mxCell>
        <mxCell id="VF8lxwO4uiRA0CJFKEZP-14" value="DB" style="shape=cylinder3;whiteSpace=wrap;html=1;boundedLbl=1;backgroundOutline=1;size=15;fillColor=#dae8fc;strokeColor=#6c8ebf;" vertex="1" parent="1">
          <mxGeometry x="645" y="160" width="90" height="80" as="geometry" />
        </mxCell>
        <mxCell id="VF8lxwO4uiRA0CJFKEZP-17" value="" style="shape=flexArrow;endArrow=classic;startArrow=classic;html=1;rounded=0;width=4;startSize=3.67;endWidth=6;endSize=3.67;startWidth=6;fillColor=#dae8fc;strokeColor=#6c8ebf;" edge="1" parent="1">
          <mxGeometry width="100" height="100" relative="1" as="geometry">
            <mxPoint x="686" y="150" as="sourcePoint" />
            <mxPoint x="596" y="100" as="targetPoint" />
            <Array as="points">
              <mxPoint x="686" y="100" />
            </Array>
          </mxGeometry>
        </mxCell>
        <mxCell id="VF8lxwO4uiRA0CJFKEZP-19" value="" style="shape=flexArrow;endArrow=classic;html=1;rounded=0;endWidth=7.5;endSize=4.835;width=5;fillColor=#ffe6cc;strokeColor=#d79b00;" edge="1" parent="1">
          <mxGeometry width="50" height="50" relative="1" as="geometry">
            <mxPoint x="600" y="204.5" as="sourcePoint" />
            <mxPoint x="640" y="204.5" as="targetPoint" />
            <Array as="points">
              <mxPoint x="600" y="204.5" />
            </Array>
          </mxGeometry>
        </mxCell>
        <mxCell id="VF8lxwO4uiRA0CJFKEZP-21" value="&lt;div style=&quot;font-family: &amp;quot;JetBrains Mono&amp;quot;, monospace; font-size: 9.8pt;&quot;&gt;&lt;pre style=&quot;&quot;&gt;&lt;br&gt;&lt;/pre&gt;&lt;/div&gt;" style="text;html=1;align=center;verticalAlign=middle;resizable=0;points=[];autosize=1;strokeColor=none;fillColor=none;dashed=1;dashPattern=12 12;" vertex="1" parent="1">
          <mxGeometry x="185" y="20" width="20" height="60" as="geometry" />
        </mxCell>
        <mxCell id="VF8lxwO4uiRA0CJFKEZP-22" value="Quarkus Data Index extension" style="text;html=1;align=center;verticalAlign=middle;resizable=0;points=[];autosize=1;strokeColor=none;fillColor=none;" vertex="1" parent="1">
          <mxGeometry x="40" y="35" width="180" height="30" as="geometry" />
        </mxCell>
        <mxCell id="VF8lxwO4uiRA0CJFKEZP-23" value="Quarkus Data Index&amp;nbsp;persistence extension" style="text;html=1;align=center;verticalAlign=middle;resizable=0;points=[];autosize=1;strokeColor=none;fillColor=none;" vertex="1" parent="1">
          <mxGeometry x="430" y="35" width="250" height="30" as="geometry" />
        </mxCell>
        <mxCell id="VF8lxwO4uiRA0CJFKEZP-25" value="" style="shape=flexArrow;endArrow=classic;html=1;rounded=0;endWidth=6;endSize=5;width=6;fillColor=#ffe6cc;strokeColor=#d79b00;" edge="1" parent="1">
          <mxGeometry width="50" height="50" relative="1" as="geometry">
            <mxPoint x="570" y="278" as="sourcePoint" />
            <mxPoint x="570" y="240" as="targetPoint" />
            <Array as="points" />
          </mxGeometry>
        </mxCell>
        <mxCell id="VF8lxwO4uiRA0CJFKEZP-26" value="" style="shape=flexArrow;endArrow=classic;html=1;rounded=0;endWidth=6;endSize=5;width=6;fillColor=#ffe6cc;strokeColor=#d79b00;" edge="1" parent="1">
          <mxGeometry width="50" height="50" relative="1" as="geometry">
            <mxPoint x="575" y="130" as="sourcePoint" />
            <mxPoint x="575" y="170" as="targetPoint" />
          </mxGeometry>
        </mxCell>
      </root>
    </mxGraphModel>
  </diagram>
</mxfile>
